<svg xmlns="http://www.w3.org/2000/svg" width="41.002" height="30.751" viewBox="0 0 41.002 30.751">
  <path id="drivers-license-o" d="M17.938,21.7a2.861,2.861,0,0,1-.631,1.872,1.893,1.893,0,0,1-1.511.77H7.268a1.9,1.9,0,0,1-1.511-.771A2.859,2.859,0,0,1,5.125,21.7a12.651,12.651,0,0,1,.15-2.013,8.757,8.757,0,0,1,.491-1.8,3.025,3.025,0,0,1,1.02-1.371,2.652,2.652,0,0,1,1.622-.5A4.25,4.25,0,0,0,11.532,17.3a4.25,4.25,0,0,0,3.123-1.281,2.665,2.665,0,0,1,1.622.5,3.007,3.007,0,0,1,1.02,1.371,8.881,8.881,0,0,1,.491,1.8A12.462,12.462,0,0,1,17.938,21.7Zm-2.563-8.889a3.827,3.827,0,0,1-3.844,3.844,3.827,3.827,0,0,1-3.844-3.844,3.827,3.827,0,0,1,3.844-3.844,3.827,3.827,0,0,1,3.844,3.844Zm20.5,8.329v1.281a.616.616,0,0,1-.64.64H21.142a.616.616,0,0,1-.64-.64V21.142a.616.616,0,0,1,.64-.64H35.237a.616.616,0,0,1,.64.64Zm-7.688-5.125V17.3a.616.616,0,0,1-.64.64H21.142a.616.616,0,0,1-.64-.64V16.017a.616.616,0,0,1,.64-.64h6.407a.616.616,0,0,1,.64.64Zm7.688,0V17.3a.616.616,0,0,1-.64.64H31.393a.616.616,0,0,1-.64-.64V16.017a.616.616,0,0,1,.64-.64h3.844a.616.616,0,0,1,.64.64Zm0-5.125v1.281a.616.616,0,0,1-.64.64H21.142a.616.616,0,0,1-.64-.64V10.892a.616.616,0,0,1,.64-.64H35.237a.616.616,0,0,1,.64.64Zm2.563,16.657V5.125H2.563V27.549a.65.65,0,0,0,.641.641H37.8a.65.65,0,0,0,.641-.641ZM41,3.2V27.549a3.212,3.212,0,0,1-3.2,3.2H3.2a3.084,3.084,0,0,1-2.262-.941A3.088,3.088,0,0,1,0,27.549V3.2A3.085,3.085,0,0,1,.941.941,3.085,3.085,0,0,1,3.2,0H37.8a3.084,3.084,0,0,1,2.262.941A3.084,3.084,0,0,1,41,3.2Z" fill="#70bb90"/>
</svg>
